<?xml version="1.0" encoding="UTF-8" standalone="no"?>
<!DOCTYPE svg PUBLIC "-//W3C//DTD SVG 1.1//EN" "http://www.w3.org/Graphics/SVG/1.1/DTD/svg11.dtd">
<svg width="100%" height="100%" viewBox="0 0 1280 340" version="1.1" xmlns="http://www.w3.org/2000/svg" xmlns:xlink="http://www.w3.org/1999/xlink" xml:space="preserve" xmlns:serif="http://www.serif.com/" style="fill-rule:evenodd;clip-rule:evenodd;stroke-linejoin:round;stroke-miterlimit:2;">
    <g transform="matrix(1,0,0,1,-320,-7804)">
        <g transform="matrix(0.48,0,0,0.27,0,7433.63887)">
            <g transform="matrix(11.271353,0,0,20.037961,-9705.327689,-1575.771417)">
                <g>
                    <g transform="matrix(0.567581,0,-0,0.567581,649.852584,-18.953468)">
                        <g transform="matrix(0.623142,-0,0,0.623142,542.299078,300.968156)">
                            <path d="M180.597,98.008L180.597,58.631L145.509,4.439L165.912,4.439L194.502,52.393L185.405,52.393L213.866,4.439L232.58,4.439L197.491,58.631L197.491,98.008L180.597,98.008Z" style="fill:white;fill-rule:nonzero;"/>
                        </g>
                        <g transform="matrix(0.623142,-0,0,0.623142,542.299078,300.968156)">
                            <path d="M267.018,98.008C266.498,96.188 266.239,94.369 266.109,92.29C265.849,90.21 265.719,87.741 265.719,84.752L265.199,84.752L265.199,53.303C265.199,49.924 264.159,47.195 262.34,45.375C260.39,43.686 257.401,42.776 253.373,42.776C249.474,42.776 246.355,43.426 244.016,44.855C241.807,46.285 240.377,48.364 239.857,51.093L224.132,51.093C224.912,44.985 227.771,39.917 232.97,36.148C238.168,32.38 245.056,30.43 253.893,30.43C262.99,30.43 269.877,32.51 274.556,36.668C279.234,40.697 281.573,46.805 281.573,54.732L281.573,84.752C281.573,86.832 281.703,89.041 281.963,91.12C282.353,93.329 282.743,95.539 283.393,98.008L267.018,98.008ZM244.016,99.307C237.388,99.307 232.06,97.618 228.161,94.239C224.132,90.99 222.183,86.442 222.183,80.853C222.183,74.876 224.392,70.067 228.811,66.428C233.229,62.789 239.467,60.45 247.525,59.281L268.188,56.162L268.188,66.558L250.254,69.287C246.355,69.937 243.366,70.977 241.417,72.536C239.467,74.096 238.558,76.175 238.558,79.034C238.558,81.503 239.467,83.453 241.287,84.882C243.106,86.182 245.575,86.832 248.824,86.832C253.503,86.832 257.401,85.662 260.52,83.323C263.639,80.984 265.199,78.124 265.199,74.746L267.018,84.752C265.199,89.431 262.47,93.07 258.441,95.539C254.542,98.008 249.734,99.307 244.016,99.307Z" style="fill:white;fill-rule:nonzero;"/>
                        </g>
                        <g transform="matrix(0.623142,-0,0,0.623142,542.299078,300.968156)">
                            <path d="M294.309,98.008L294.309,4.439L336.285,4.439C343.173,4.439 349.021,5.608 353.96,7.948C358.768,10.287 362.537,13.536 365.266,17.824C367.865,22.113 369.165,27.051 369.165,32.899C369.165,38.617 367.865,43.686 365.136,47.974C362.537,52.263 358.768,55.642 353.83,58.111C348.891,60.45 343.173,61.62 336.285,61.62L307.435,61.62L307.435,48.364L335.506,48.364C340.834,48.364 344.993,46.935 347.982,44.206C350.841,41.477 352.27,37.708 352.27,32.899C352.27,28.221 350.841,24.452 347.982,21.853C344.993,19.124 340.964,17.824 335.506,17.824L311.204,17.824L311.204,98.008L294.309,98.008Z" style="fill:white;fill-rule:nonzero;"/>
                        </g>
                        <g transform="matrix(0.623142,-0,0,0.623142,542.299078,300.968156)">
                            <path d="M415.689,98.008C415.169,96.188 414.909,94.369 414.779,92.29C414.52,90.21 414.39,87.741 414.39,84.752L413.87,84.752L413.87,53.303C413.87,49.924 412.83,47.195 411.011,45.375C409.061,43.686 406.072,42.776 402.044,42.776C398.145,42.776 395.026,43.426 392.687,44.855C390.478,46.285 389.048,48.364 388.528,51.093L372.803,51.093C373.583,44.985 376.442,39.917 381.64,36.148C386.839,32.38 393.726,30.43 402.564,30.43C411.661,30.43 418.548,32.51 423.227,36.668C427.905,40.697 430.244,46.805 430.244,54.732L430.244,84.752C430.244,86.832 430.374,89.041 430.634,91.12C431.024,93.329 431.414,95.539 432.064,98.008L415.689,98.008ZM392.687,99.307C386.059,99.307 380.731,97.618 376.832,94.239C372.803,90.99 370.854,86.442 370.854,80.853C370.854,74.876 373.063,70.067 377.482,66.428C381.9,62.789 388.138,60.45 396.196,59.281L416.859,56.162L416.859,66.558L398.925,69.287C395.026,69.937 392.037,70.977 390.088,72.536C388.138,74.096 387.229,76.175 387.229,79.034C387.229,81.503 388.138,83.453 389.958,84.882C391.777,86.182 394.246,86.832 397.495,86.832C402.174,86.832 406.072,85.662 409.191,83.323C412.31,80.984 413.87,78.124 413.87,74.746L415.689,84.752C413.87,89.431 411.141,93.07 407.112,95.539C403.213,98.008 398.405,99.307 392.687,99.307Z" style="fill:white;fill-rule:nonzero;"/>
                        </g>
                        <g transform="matrix(0.623142,-0,0,0.623142,542.299078,300.968156)">
                            <path d="M437.782,98.008L437.782,86.442L475.86,38.358L479.758,44.596L438.952,44.596L438.952,31.73L492.104,31.73L492.104,43.296L454.677,90.73L450.908,85.142L492.884,85.142L492.884,98.008L437.782,98.008Z" style="fill:white;fill-rule:nonzero;"/>
                        </g>
                        <g transform="matrix(0.623142,-0,0,0.623142,542.299078,300.968156)">
                            <path d="M530.831,99.307C523.813,99.307 517.705,97.878 512.507,94.889C507.179,92.03 503.15,87.871 500.161,82.673C497.302,77.475 495.873,71.497 495.873,64.739C495.873,57.981 497.302,52.003 500.161,46.805C503.15,41.736 507.179,37.708 512.377,34.719C517.575,31.86 523.683,30.43 530.571,30.43C537.199,30.43 542.917,31.86 547.725,34.589C552.664,37.318 556.433,41.087 559.032,46.025C561.761,50.963 563.06,56.681 563.06,63.309C563.06,64.609 563.06,65.648 562.93,66.688C562.93,67.728 562.8,68.767 562.541,69.807L506.009,69.807L506.009,58.371L549.935,58.371L546.556,61.49C546.556,55.252 545.126,50.574 542.267,47.455C539.408,44.336 535.379,42.776 530.311,42.776C524.723,42.776 520.304,44.596 517.186,48.494C513.937,52.263 512.247,57.851 512.247,64.999C512.247,72.146 513.937,77.605 517.186,81.373C520.304,85.142 524.983,86.962 530.961,86.962C534.47,86.962 537.459,86.312 540.058,85.012C542.657,83.713 544.476,81.763 545.776,79.034L561.241,79.034C559.162,85.272 555.393,90.21 550.325,93.849C545.126,97.488 538.628,99.307 530.831,99.307Z" style="fill:white;fill-rule:nonzero;"/>
                        </g>
                    </g>
                    <g transform="matrix(0.112512,0,-0,0.112512,1020.750201,137.301913)">
                        <path d="M544.03,585.413L544.03,511.292L515.777,511.292L515.777,503.057L581.662,503.057L581.662,511.292L553.41,511.292L553.41,585.413L544.03,585.413Z" style="fill:white;fill-rule:nonzero;"/>
                        <path d="M606.712,586.557C601.145,586.557 596.227,585.241 591.957,582.61C587.686,579.98 584.331,576.376 581.891,571.801C579.451,567.226 578.231,561.964 578.231,556.016C578.231,550.068 579.432,544.826 581.834,540.289C584.236,535.751 587.61,532.224 591.957,529.708C596.303,527.192 601.298,525.933 606.941,525.933C612.355,525.933 617.064,527.115 621.067,529.479C625.071,531.843 628.159,535.16 630.332,539.431C632.506,543.701 633.592,548.734 633.592,554.529C633.592,555.292 633.573,556.016 633.535,556.703C633.497,557.389 633.402,558.151 633.249,558.99L585.094,558.99L585.094,551.326L627.644,551.326L624.67,555.559C624.67,548.543 623.126,543.148 620.038,539.373C616.949,535.599 612.584,533.711 606.941,533.711C601.145,533.711 596.475,535.713 592.929,539.717C589.383,543.72 587.61,549.115 587.61,555.902C587.61,562.841 589.383,568.389 592.929,572.545C596.475,576.701 601.222,578.778 607.17,578.778C610.906,578.778 614.185,577.959 617.007,576.319C619.828,574.68 621.887,572.335 623.183,569.285L631.876,569.285C629.97,574.623 626.786,578.836 622.325,581.924C617.865,585.012 612.66,586.557 606.712,586.557Z" style="fill:white;fill-rule:nonzero;"/>
                        <path d="M670.424,586.557C665.086,586.557 660.339,585.241 656.183,582.61C652.027,579.98 648.748,576.357 646.346,571.744C643.944,567.13 642.743,561.888 642.743,556.016C642.743,550.145 643.944,544.959 646.346,540.46C648.748,535.961 652.027,532.415 656.183,529.822C660.339,527.23 665.048,525.933 670.309,525.933C674.656,525.933 678.564,526.772 682.034,528.45C685.503,530.127 688.363,532.51 690.612,535.599C692.862,538.687 694.292,542.29 694.902,546.408L686.437,546.408C685.675,542.671 683.921,539.621 681.176,537.257C678.43,534.893 674.885,533.711 670.538,533.711C666.802,533.711 663.561,534.627 660.815,536.457C658.07,538.287 655.935,540.879 654.41,544.235C652.885,547.59 652.122,551.517 652.122,556.016C652.122,560.515 652.885,564.481 654.41,567.912C655.935,571.344 658.089,574.013 660.873,575.919C663.656,577.825 666.916,578.778 670.652,578.778C674.846,578.778 678.354,577.616 681.176,575.29C683.997,572.964 685.789,569.933 686.552,566.196L695.016,566.196C694.33,570.238 692.824,573.803 690.498,576.891C688.172,579.98 685.293,582.363 681.862,584.04C678.43,585.718 674.618,586.557 670.424,586.557Z" style="fill:white;fill-rule:nonzero;"/>
                        <path d="M708.285,585.413L708.285,503.057L717.435,503.057L717.435,585.413L708.285,585.413ZM750.034,585.413L750.034,547.209C750.034,542.786 748.929,539.469 746.717,537.257C744.506,535.046 741.227,533.94 736.88,533.94C733.068,533.94 729.693,534.779 726.757,536.457C723.822,538.134 721.534,540.46 719.894,543.434C718.255,546.408 717.435,549.878 717.435,553.843L715.948,540.003C717.931,535.656 720.962,532.224 725.042,529.708C729.121,527.192 733.754,525.933 738.939,525.933C745.04,525.933 749.939,527.668 753.638,531.138C757.336,534.607 759.185,539.164 759.185,544.807L759.185,585.413L750.034,585.413Z" style="fill:white;fill-rule:nonzero;"/>
                        <path d="M776.8,585.413L776.8,527.077L785.379,527.077L785.379,540.803L785.951,540.803L785.951,585.413L776.8,585.413ZM818.55,585.413L818.55,547.209C818.55,542.786 817.444,539.469 815.233,537.257C813.022,535.046 809.743,533.94 805.396,533.94C801.583,533.94 798.209,534.779 795.273,536.457C792.337,538.134 790.05,540.46 788.41,543.434C786.771,546.408 785.951,549.878 785.951,553.843L784.464,540.003C786.446,535.656 789.478,532.224 793.557,529.708C797.637,527.192 802.27,525.933 807.455,525.933C813.555,525.933 818.455,527.668 822.153,531.138C825.852,534.607 827.701,539.164 827.701,544.807L827.701,585.413L818.55,585.413Z" style="fill:white;fill-rule:nonzero;"/>
                        <path d="M869.565,586.557C863.846,586.557 858.813,585.222 854.466,582.553C850.12,579.884 846.746,576.243 844.344,571.63C841.941,567.016 840.74,561.812 840.74,556.016C840.74,550.145 841.961,544.959 844.401,540.46C846.841,535.961 850.215,532.415 854.524,529.822C858.832,527.23 863.846,525.933 869.565,525.933C875.36,525.933 880.412,527.23 884.721,529.822C889.029,532.415 892.385,535.961 894.787,540.46C897.189,544.959 898.39,550.145 898.39,556.016C898.39,561.812 897.189,567.016 894.787,571.63C892.385,576.243 889.029,579.884 884.721,582.553C880.412,585.222 875.36,586.557 869.565,586.557ZM869.565,578.778C873.53,578.778 876.962,577.806 879.86,575.862C882.757,573.917 885.007,571.229 886.608,567.798C888.21,564.366 889.01,560.401 889.01,555.902C889.01,549.191 887.237,543.815 883.691,539.774C880.145,535.732 875.437,533.711 869.565,533.711C863.77,533.711 859.08,535.732 855.496,539.774C851.912,543.815 850.12,549.191 850.12,555.902C850.12,560.401 850.921,564.366 852.522,567.798C854.123,571.229 856.392,573.917 859.328,575.862C862.264,577.806 865.676,578.778 869.565,578.778Z" style="fill:white;fill-rule:nonzero;"/>
                        <rect x="912.116" y="503.057" width="9.151" height="82.356" style="fill:white;fill-rule:nonzero;"/>
                        <path d="M963.817,586.557C958.098,586.557 953.065,585.222 948.718,582.553C944.372,579.884 940.997,576.243 938.595,571.63C936.193,567.016 934.992,561.812 934.992,556.016C934.992,550.145 936.212,544.959 938.653,540.46C941.093,535.961 944.467,532.415 948.775,529.822C953.084,527.23 958.098,525.933 963.817,525.933C969.612,525.933 974.664,527.23 978.973,529.822C983.281,532.415 986.636,535.961 989.038,540.46C991.44,544.959 992.641,550.145 992.641,556.016C992.641,561.812 991.44,567.016 989.038,571.63C986.636,576.243 983.281,579.884 978.973,582.553C974.664,585.222 969.612,586.557 963.817,586.557ZM963.817,578.778C967.782,578.778 971.214,577.806 974.111,575.862C977.009,573.917 979.259,571.229 980.86,567.798C982.461,564.366 983.262,560.401 983.262,555.902C983.262,549.191 981.489,543.815 977.943,539.774C974.397,535.732 969.689,533.711 963.817,533.711C958.021,533.711 953.332,535.732 949.748,539.774C946.164,543.815 944.372,549.191 944.372,555.902C944.372,560.401 945.172,564.366 946.774,567.798C948.375,571.229 950.644,573.917 953.58,575.862C956.515,577.806 959.928,578.778 963.817,578.778Z" style="fill:white;fill-rule:nonzero;"/>
                        <path d="M1029.587,610.005C1022.648,610.005 1016.872,608.385 1012.258,605.144C1007.645,601.903 1004.842,597.614 1003.851,592.276L1012.544,592.276C1013.383,595.326 1015.27,597.747 1018.206,599.539C1021.142,601.331 1025.126,602.227 1030.159,602.227C1036.107,602.227 1040.606,600.607 1043.656,597.366C1046.707,594.125 1048.232,589.378 1048.232,583.125L1048.232,570.657L1049.376,570.886C1048.079,575.309 1045.487,578.836 1041.598,581.466C1037.709,584.097 1033.095,585.413 1027.757,585.413C1022.648,585.413 1018.149,584.174 1014.26,581.695C1010.371,579.217 1007.359,575.766 1005.224,571.344C1003.089,566.921 1002.021,561.774 1002.021,555.902C1002.021,549.954 1003.127,544.73 1005.338,540.231C1007.549,535.732 1010.657,532.244 1014.66,529.765C1018.664,527.287 1023.334,526.048 1028.672,526.048C1034.163,526.048 1038.757,527.382 1042.455,530.051C1046.154,532.72 1048.613,536.533 1049.833,541.49L1048.804,541.604L1048.804,527.077L1057.382,527.077L1057.382,583.125C1057.382,591.437 1054.904,597.995 1049.948,602.799C1044.991,607.603 1038.204,610.005 1029.587,610.005ZM1030.045,577.52C1035.764,577.52 1040.301,575.538 1043.656,571.572C1047.012,567.607 1048.689,562.231 1048.689,555.444C1048.689,548.81 1047.012,543.567 1043.656,539.717C1040.301,535.866 1035.764,533.94 1030.045,533.94C1024.249,533.94 1019.693,535.885 1016.376,539.774C1013.059,543.663 1011.4,549.001 1011.4,555.787C1011.4,562.422 1013.078,567.702 1016.433,571.63C1019.788,575.557 1024.326,577.52 1030.045,577.52Z" style="fill:white;fill-rule:nonzero;"/>
                        <path d="M1075.684,585.413L1075.684,527.077L1084.834,527.077L1084.834,585.413L1075.684,585.413ZM1074.997,513.809L1074.997,503.057L1085.521,503.057L1085.521,513.809L1074.997,513.809Z" style="fill:white;fill-rule:nonzero;"/>
                        <path d="M1126.813,586.557C1121.246,586.557 1116.328,585.241 1112.058,582.61C1107.787,579.98 1104.432,576.376 1101.992,571.801C1099.552,567.226 1098.332,561.964 1098.332,556.016C1098.332,550.068 1099.533,544.826 1101.935,540.289C1104.337,535.751 1107.711,532.224 1112.058,529.708C1116.404,527.192 1121.399,525.933 1127.042,525.933C1132.456,525.933 1137.165,527.115 1141.168,529.479C1145.172,531.843 1148.26,535.16 1150.433,539.431C1152.607,543.701 1153.693,548.734 1153.693,554.529C1153.693,555.292 1153.674,556.016 1153.636,556.703C1153.598,557.389 1153.503,558.151 1153.35,558.99L1105.195,558.99L1105.195,551.326L1147.745,551.326L1144.771,555.559C1144.771,548.543 1143.227,543.148 1140.139,539.373C1137.05,535.599 1132.685,533.711 1127.042,533.711C1121.246,533.711 1116.576,535.713 1113.03,539.717C1109.484,543.72 1107.711,549.115 1107.711,555.902C1107.711,562.841 1109.484,568.389 1113.03,572.545C1116.576,576.701 1121.323,578.778 1127.271,578.778C1131.007,578.778 1134.286,577.959 1137.108,576.319C1139.929,574.68 1141.988,572.335 1143.284,569.285L1151.977,569.285C1150.071,574.623 1146.887,578.836 1142.426,581.924C1137.966,585.012 1132.761,586.557 1126.813,586.557Z" style="fill:white;fill-rule:nonzero;"/>
                        <path d="M1187.208,586.557C1180.04,586.557 1174.32,584.898 1170.05,581.581C1165.78,578.264 1163.34,573.555 1162.73,567.455L1171.537,567.455C1172.071,571.191 1173.71,574.051 1176.456,576.033C1179.201,578.016 1182.861,579.007 1187.436,579.007C1191.478,579.007 1194.642,578.245 1196.93,576.72C1199.218,575.194 1200.362,573.021 1200.362,570.2C1200.362,568.217 1199.713,566.482 1198.417,564.995C1197.121,563.508 1194.528,562.269 1190.639,561.278L1181.26,558.876C1175.922,557.503 1171.918,555.387 1169.249,552.528C1166.58,549.668 1165.246,546.255 1165.246,542.29C1165.246,537.257 1167.114,533.273 1170.851,530.337C1174.587,527.401 1179.658,525.933 1186.064,525.933C1192.393,525.933 1197.54,527.459 1201.505,530.509C1205.471,533.559 1207.72,537.791 1208.254,543.205L1199.447,543.205C1198.913,540.079 1197.464,537.677 1195.1,535.999C1192.736,534.322 1189.61,533.483 1185.721,533.483C1181.984,533.483 1179.086,534.188 1177.027,535.599C1174.969,537.01 1173.939,539.011 1173.939,541.604C1173.939,543.587 1174.683,545.302 1176.17,546.751C1177.657,548.2 1180.154,549.42 1183.662,550.411L1192.812,552.928C1198.226,554.377 1202.306,556.588 1205.051,559.562C1207.797,562.536 1209.169,566.12 1209.169,570.314C1209.169,575.423 1207.225,579.408 1203.336,582.267C1199.447,585.127 1194.071,586.557 1187.208,586.557Z" style="fill:white;fill-rule:nonzero;"/>
                    </g>
                </g>
                <g transform="matrix(0.603774,0,-0,0.603774,920.208897,147.130317)">
                    <path d="M78.711,85.749C78.711,83.503 77.236,81.522 75.083,80.877C72.93,80.234 70.61,81.078 69.376,82.956C65.369,89.052 62.735,96.129 61.918,103.746L-0.001,103.746L-0.001,0L103.745,0L103.745,61.917C96.129,62.735 89.051,65.37 82.956,69.376C81.078,70.611 80.233,72.931 80.877,75.084C81.521,77.237 83.502,78.712 85.749,78.712L98.116,78.712C101.224,78.712 103.745,81.234 103.745,84.341L103.745,98.117C103.745,101.224 101.224,103.746 98.116,103.746L84.341,103.746C81.234,103.746 78.711,101.224 78.711,98.117L78.711,85.749ZM52.31,42.618C53.044,42.619 53.427,42.621 51.977,42.625C52.089,42.624 52.199,42.622 52.31,42.618L51.189,42.618C51.311,42.622 51.434,42.624 51.557,42.626C50.059,42.621 50.446,42.619 51.189,42.618C47.082,42.488 43.188,40.727 40.376,37.714C37.444,34.57 35.954,30.348 36.262,26.061C36.487,22.935 35.411,19.731 33.024,17.343C28.662,12.982 21.581,12.982 17.219,17.343C12.858,21.704 12.858,28.786 17.219,33.147C19.214,35.142 21.779,36.224 24.392,36.392C28.681,36.667 32.662,38.717 35.378,42.048C38.094,45.379 39.301,49.691 38.707,53.949C38.638,54.445 38.597,54.946 38.584,55.446C38.379,63.381 32.195,69.871 24.279,70.459C21.706,70.65 19.186,71.73 17.219,73.696C12.858,78.057 12.858,85.139 17.219,89.5C21.581,93.861 28.662,93.861 33.024,89.5C34.901,87.623 35.97,85.242 36.229,82.791C37.062,74.898 43.74,68.919 51.678,68.959C55.072,68.976 58.473,67.694 61.06,65.107C64.1,62.067 65.337,57.905 64.785,53.949C64.192,49.691 65.398,45.378 68.115,42.048C70.832,38.716 74.814,36.667 79.104,36.392C81.717,36.224 84.283,35.143 86.279,33.147C90.64,28.786 90.64,21.704 86.279,17.343C81.917,12.982 74.835,12.982 70.474,17.343C68.087,19.731 67.011,22.935 67.236,26.061C67.544,30.349 66.053,34.572 63.121,37.714C60.309,40.728 56.416,42.488 52.31,42.618Z" style="fill:white;fill-rule:nonzero;"/>
                </g>
            </g>
        </g>
    </g>
</svg>
